<?xml version="1.0" encoding="UTF-8"?><svg id="Layer_2" xmlns="http://www.w3.org/2000/svg" viewBox="0 0 725.86 225.72"><defs><style>.cls-1{fill:#fff;stroke-width:0px;}</style></defs><g id="Layer_1-2"><path class="cls-1" d="M53.94,181.64c3.89-2.1,7.64-4.11,11.6-6.25,2.11,3.88,4.16,7.67,6.32,11.65-3.96,2.16-7.76,4.22-11.49,6.26.55,5.07-.02,6.13-4.49,8.55-13.5,7.3-26.99,14.6-40.49,21.9-4.31,2.33-6.74,1.55-9.06-2.82-1.58-2.96-3.25-5.88-4.83-8.84-2.6-4.86-1.95-7.13,2.83-9.72,13.49-7.32,26.98-14.63,40.48-21.93,4.07-2.2,5.49-2.01,9.12,1.21Z"/><path class="cls-1" d="M230.74,113.13c-6.93-22.07-22.05-40.12-42.55-50.82-20.51-10.7-43.95-12.78-66.02-5.85-22.06,6.93-40.11,22.05-50.82,42.55-10.71,20.51-12.78,43.95-5.85,66.02,6.93,22.06,22.04,40.11,42.55,50.82,12.55,6.55,26.2,9.87,39.97,9.87,8.72,0,17.49-1.33,26.05-4.02,8.95-2.81,17.25-6.97,24.65-12.29-5.95-6.94-9.85-15.4-11.41-24.6-6.1,5.23-13.26,9.22-21.15,11.7-15.34,4.82-31.63,3.37-45.89-4.07-14.25-7.44-24.75-19.98-29.57-35.32-4.82-15.35-3.37-31.64,4.07-45.9,7.44-14.25,19.98-24.75,35.33-29.57,5.95-1.87,12.04-2.8,18.1-2.8,9.57,0,19.06,2.31,27.79,6.86,14.25,7.44,24.75,19.98,29.57,35.33,1.27,4.04,2.11,8.16,2.51,12.27,7.36-5.13,16.08-8.21,25.42-8.95-.66-3.77-1.57-7.52-2.74-11.23Z"/><path class="cls-1" d="M255.51,113.22L217.33,2.8c-.66-1.65.33-2.8,2.14-2.8h21.89c1.32,0,2.3.49,2.8,1.97l25.67,80.15L295.51,1.97c.49-1.48,1.48-1.97,2.8-1.97h22.05c1.81,0,2.63,1.15,1.98,2.8l-38.18,110.43c-.49,1.32-1.81,1.98-3.13,1.98h-22.38c-1.32,0-2.63-.66-3.13-1.98Z"/><path class="cls-1" d="M237.93,133.29c-1.13,0-2.26.04-3.36.12-10.56.74-19.74,5.02-26.53,11.7-7.77,7.62-12.4,18.34-12.4,30.48,0,.15,0,.3,0,.45.1,10.75,3.85,20.37,10.18,27.67,7.59,8.76,18.9,14.17,32.1,14.17,24.36,0,42.46-18.43,42.46-42.3s-18.1-42.3-42.46-42.3ZM237.93,194.84c-7.23,0-13.3-3.72-16.22-10.1-1.21-2.62-1.88-5.7-1.88-9.15,0-9.8,5.41-16.57,13.06-18.6,1.59-.43,3.28-.65,5.04-.65,10.21,0,18.1,7.4,18.1,19.25s-7.9,19.25-18.1,19.25Z"/><path class="cls-1" d="M317.73,74.88c0-23.86,17.94-42.3,42.3-42.3s42.46,18.43,42.46,42.3-18.1,42.3-42.46,42.3-42.3-18.43-42.3-42.3ZM360.03,94.14c10.2,0,18.1-7.41,18.1-19.25s-7.9-19.25-18.1-19.25-18.1,7.41-18.1,19.25,7.9,19.25,18.1,19.25Z"/><path class="cls-1" d="M422.57,91.34v-37.36h-10.04c-1.48,0-2.47-.99-2.47-2.47v-14.48c0-1.48.99-2.47,2.47-2.47h10.04V15.63c0-1.48,1.15-2.47,2.63-2.47h20.24c1.48,0,2.63.99,2.63,2.47v18.93h12.34c1.48,0,2.47.99,2.47,2.47v14.48c0,1.48-.99,2.47-2.47,2.47h-12.34v34.73c0,4.28,2.8,6.58,6.91,6.58,1.48,0,2.96,0,5.1-.16,1.65-.16,2.96.66,2.96,2.31v13.66c0,4.11-8.89,5.1-14.48,5.1-13.33,0-26-6.09-26-24.85Z"/><path class="cls-1" d="M293.01,213.44v-75.7c0-1.48.99-2.47,2.47-2.47h19.42c1.48,0,2.31.66,2.47,2.63l.82,10.7c2.63-8.72,7.74-15.31,17.12-15.31,3.95,0,6.09,1.15,7.41,2.14,1.15.82,1.48,1.81,1.48,3.29v16.46c0,1.98-1.15,2.47-3.46,1.98-1.65-.49-3.46-.82-5.92-.82-10.37,0-16.62,6.25-16.62,18.27v38.84c0,1.48-1.15,2.47-2.63,2.47h-20.08c-1.48,0-2.47-.99-2.47-2.47Z"/><path class="cls-1" d="M348.33,175.26c0-23.7,16.62-41.97,41.47-41.97s39,17.94,39,38.67c0,8.23-2.14,13.17-9.55,13.17h-46.41c2.8,8.72,10.37,13,21.89,13,5.43,0,11.02-.66,17.77-4.44,1.32-.66,1.98-.33,2.96.82l6.75,9.55c.66.99.66,2.3-.82,3.62-6.91,6.91-17.28,10.21-28.64,10.21-26.5,0-44.43-18.1-44.43-42.63ZM406.42,167.69c-1.65-9.71-8.07-13.66-16.46-13.66s-15.47,4.11-17.44,13.66h33.9Z"/><path class="cls-1" d="M437.1,182.87c-4.96-23.17,8.63-44.6,32.45-49.69,13.2-2.82,25.02.53,33.68,7.94,1.17.76,1.32,2.24.56,3.41l-8.83,13c-1.01,1.56-2.78,1.94-4.31,1.09-5.08-3.29-9.68-4.32-15.15-3.15-11.59,2.48-16.91,12.2-14.74,22.34,2.2,10.3,11.21,17.8,23.12,15.25,5.31-1.14,9.05-4.13,12.53-9.08.88-1.37,2.66-1.75,4.22-.73l13.38,8.24c1.17.76,1.61,2.01.88,3.35-4.87,10.3-14.28,18.2-26.99,20.93-24.14,5.17-45.73-9.23-50.8-32.89Z"/><path class="cls-1" d="M527.75,192.05v-37.36h-10.04c-1.48,0-2.47-.99-2.47-2.47v-14.48c0-1.48.99-2.47,2.47-2.47h10.04v-18.93c0-1.48,1.15-2.47,2.63-2.47h20.24c1.48,0,2.63.99,2.63,2.47v18.93h12.34c1.48,0,2.47.99,2.47,2.47v14.48c0,1.48-.99,2.47-2.47,2.47h-12.34v34.73c0,4.28,2.8,6.58,6.91,6.58,1.48,0,2.96,0,5.1-.16,1.65-.16,2.96.66,2.96,2.31v13.66c0,4.11-8.89,5.1-14.48,5.1-13.33,0-26-6.09-26-24.85Z"/><path class="cls-1" d="M246.52,110.04c-1.01,0-1.95-.63-2.29-1.64l-30.93-90.56c-.43-1.27.24-2.64,1.51-3.07,1.26-.43,2.64.24,3.07,1.51l30.93,90.56c.43,1.27-.24,2.64-1.51,3.07-.26.09-.52.13-.78.13Z"/><path class="cls-1" d="M92.75,137.9c0,24.82,16.33,45.81,38.83,52.85,1.32.41,2.55-.82,2.12-2.13l-27.51-82.65c-.44-1.31-2.16-1.56-2.97-.44-6.58,9.11-10.46,20.29-10.46,32.38Z"/><path class="cls-1" d="M108.24,100.82l30.18,90.67c.2.6.71,1.04,1.33,1.13,1.21.18,2.44.33,3.68.43s2.11-1.07,1.73-2.21l-31.14-93.56c-.38-1.14-1.81-1.54-2.71-.73s-1.82,1.68-2.68,2.56c-.44.45-.58,1.11-.39,1.71Z"/><path class="cls-1" d="M122.62,90.37l33.58,100.88c.27.8,1.08,1.28,1.91,1.12.01,0,.02,0,.03,0,1-.19,1.6-1.22,1.28-2.19l-33.58-100.88c-.32-.97-1.42-1.43-2.34-.98-.01,0-.02.01-.03.02-.76.37-1.12,1.25-.86,2.04Z"/><path class="cls-1" d="M579.81,207.28c0-6.47,5.05-11.78,11.52-11.78s11.52,5.31,11.52,11.78-5.05,11.52-11.52,11.52-11.52-5.18-11.52-11.52Z"/><path class="cls-1" d="M612.95,215.17v-59.56c0-1.17.78-1.94,1.94-1.94h15.28c1.17,0,1.81.52,1.94,2.07l.65,8.42c2.07-6.86,6.09-12.04,13.47-12.04,3.11,0,4.79.91,5.83,1.68.91.65,1.17,1.42,1.17,2.59v12.95c0,1.55-.91,1.94-2.72,1.55-1.29-.39-2.72-.65-4.66-.65-8.16,0-13.08,4.92-13.08,14.37v30.56c0,1.17-.91,1.94-2.07,1.94h-15.8c-1.17,0-1.94-.78-1.94-1.94Z"/><path class="cls-1" d="M659.18,185.39c0-18.77,14.11-33.28,33.28-33.28s33.41,14.5,33.41,33.28-14.24,33.28-33.41,33.28-33.28-14.5-33.28-33.28ZM692.45,200.54c8.03,0,14.24-5.83,14.24-15.15s-6.21-15.15-14.24-15.15-14.24,5.83-14.24,15.15,6.21,15.15,14.24,15.15Z"/></g></svg>